<?xml version="1.0" encoding="UTF-8"?><svg id="a" xmlns="http://www.w3.org/2000/svg" xmlns:xlink="http://www.w3.org/1999/xlink" viewBox="0 0 398.75 26.21"><defs><style>.g{filter:url(#b);}.h{fill:#060605;}.h,.i{fill-rule:evenodd;}.i{fill:#fbf3cb;}</style><filter id="b" filterUnits="userSpaceOnUse"><feOffset dx="0" dy="8.5"/><feGaussianBlur result="c" stdDeviation="2.83"/><feFlood flood-color="#000" flood-opacity=".34"/><feComposite in2="c" operator="in"/><feComposite in="SourceGraphic"/></filter></defs><g id="d" class="g"><path id="e" class="h" d="M5,.4c.29,.35,1.2,.4,1.2,.07,0-.12,1.04,.84,2.3,2.15,1.92,1.98,2.25,2.41,2,2.6-.5,.37-.35,.8,.61,1.76,.98,.98,1.7,1.18,2,.54,.16-.34,.43-.19,2.62,1.45,2.32,1.73,2.42,1.84,2.11,2.19-.46,.51-.16,.91,1.2,1.61,1.05,.54,2.15,.61,1.84,.12-.25-.4,.6-.15,2.26,.68,.96,.48,2.3,1.08,2.97,1.34,1.13,.43,1.22,.51,1.2,1.06-.05,1.17,2.91,2.02,3.37,.98,.11-.25,.32-.41,.46-.35,.49,.19,4.15,.88,5.4,1.02,1.15,.13,1.25,.18,1.25,.62,0,1.07,3.22,1.56,3.61,.55,.11-.28,.16-.58,.12-.65-.05-.07,1.25-.16,2.89-.18l2.97-.05,.06,.65c.06,.62,.11,.65,.96,.72,1.71,.12,3.05-.68,2.53-1.51-.06-.09,1.22-.41,2.83-.7,1.61-.29,3.11-.59,3.32-.67,.32-.12,.36-.07,.27,.29-.06,.24-.03,.49,.07,.55,.1,.06,.13,.2,.07,.3-.06,.1,.05,.2,.25,.21,1.8,.11,3.59-1.04,3.08-1.99-.17-.32-.06-.41,.94-.72,.63-.2,1.9-.66,2.83-1.03,1.92-.77,2.01-.79,2.01-.39,0,.16,.19,.42,.43,.59,.79,.55,3.1-1.05,2.92-2.01-.08-.43,.07-.57,1.33-1.2,.78-.39,2.04-1.07,2.8-1.51,1.33-.77,1.71-.8,1.72-.1,0,.25,.78,.17,1.36-.13,1.01-.53,1.71-1.43,1.58-2.07-.09-.43-.02-.63,.27-.81,.21-.13,1.33-1,2.48-1.94,2.08-1.69,2.09-1.69,2.4-1.25l.31,.44,.71-.38c1.32-.71,1.98-1.78,1.56-2.5-.57-.96-1.13-.81-2.97,.82-12.09,10.72-30.73,17.25-44.2,15.48-.44-.06-1.43-.14-2.2-.19-2.24-.14-7.14-1.26-8.35-1.92-.19-.1-.47-.19-.62-.19-3.02,0-13.44-6.93-19.24-12.78L7.1,.1h-1.18c-1.02,0-1.14,.04-.93,.3M101.8,.18c0,.62,2,1.07,2.35,.53,.23-.37,.36-.3,2.31,1.17,1.14,.86,2.35,1.72,2.7,1.93,.66,.39,.83,.79,.39,.95-.39,.14,.45,1.16,1.37,1.69,.94,.54,1.59,.57,1.86,.1,.17-.3,.26-.31,.61-.1,.23,.14,1.56,.85,2.96,1.58,3.01,1.57,2.78,1.41,2.48,1.71-.34,.34-.3,.48,.31,1.05,1.13,1.05,3.06,1.29,3.06,.38,0-.22,.1-.27,.35-.17,1.56,.64,5.1,1.9,5.36,1.9,.21,0,.31,.16,.28,.45-.06,.77,0,.88,.55,1.13,1.45,.66,3.06,.61,3.06-.09,0-.37-.02-.37,2.23,.09,1.03,.21,2.39,.45,3.02,.52,.63,.08,1.16,.24,1.17,.37,.01,.12,.03,.4,.05,.62,.09,1.22,3.53,1.16,3.53-.05,0-.36,.08-.45,.32-.36,.17,.07,1.54,.12,3.02,.12h2.71l-.09,.59c-.12,.79,.6,1.11,2.04,.91,1.14-.16,1.61-.5,1.61-1.2,0-.42,.11-.48,1.25-.6,.69-.08,2.05-.26,3.04-.42,.98-.15,1.8-.26,1.81-.23,.01,.02,.13,.29,.26,.6,.29,.66,1.07,.72,2.4,.18,.8-.32,1.73-1.23,1.26-1.23-.55,0-.12-.41,.64-.61,.47-.12,1.82-.52,3-.88,2.19-.66,2.29-.66,2.18,.12-.01,.07,.36,.11,.83,.08,1.39-.09,2.92-1.22,2.64-1.96-.07-.18,.16-.37,.65-.54,.42-.15,1.68-.72,2.81-1.27,1.97-.96,2.07-.98,2.33-.62,.15,.21,.23,.44,.18,.53-.27,.43,1.01,.06,1.76-.51,1.1-.84,1.6-1.67,1.18-1.94-.16-.1-.25-.22-.2-.26s.72-.47,1.49-.94c.77-.48,1.86-1.2,2.41-1.61l1.01-.75,.39,.58c.61,.9,1.37,.63,2.49-.88,.58-.78,.59-.84,.27-1.31-.31-.48-.3-.52,.21-.96l.54-.46h-.84c-.72,0-1.09,.19-2.56,1.28-18.59,13.79-42.91,17.07-62.54,8.43-.65-.29-1.64-.72-2.18-.95-1.94-.84-6.41-3.2-7.5-3.97-.61-.42-1.64-1.04-2.3-1.37s-2.07-1.23-3.14-2.01l-1.94-1.4h-1.71c-.94,0-1.71,.04-1.71,.08m99.6-.02s.81,.72,1.8,1.52c.99,.8,1.75,1.54,1.69,1.64-.06,.1-.19,.13-.28,.08-.66-.41,.33,1.16,1.16,1.84,1.04,.85,1.4,.91,1.99,.33,.21-.2,.57-.05,1.9,.8,.9,.58,2.12,1.32,2.69,1.64,1.02,.57,1.37,1.09,.74,1.09s.54,1.23,1.65,1.73c1.3,.57,1.16,.57,1.66,.03,.36-.38,.49-.41,.96-.22,.3,.12,1.59,.66,2.88,1.18,2.24,.92,2.32,.98,2.15,1.43-.22,.57-.12,.76,.58,1.12,1.2,.61,2.84,.62,2.84,.02,0-.49,.27-.47,3.09,.22,1.53,.38,2.96,.68,3.17,.68,.28,0,.35,.09,.25,.35-.25,.64-.21,.73,.49,1.09,1.35,.69,3.2,.35,3.2-.58,0-.18,.12-.26,.27-.2,.15,.06,1.68,.22,3.39,.35l3.12,.25,.06,.6c.07,.75,.77,.99,2.31,.81,1.1-.13,1.47-.45,1.3-1.11-.09-.33,.03-.37,.98-.37,.59,0,2.1-.1,3.35-.21,2.34-.22,2.78-.12,2.53,.56-.18,.5,.69,.72,1.85,.46,1.22-.27,1.93-.84,1.75-1.39-.1-.31,.12-.41,1.64-.71,.96-.19,2.59-.56,3.61-.83,2.23-.58,2.01-.57,2.08-.03,.08,.54,1.21,.56,2.44,.05,.71-.3,.8-.44,.73-1.15-.02-.19,.08-.39,.23-.44,.26-.09,5.38-1.98,6.03-2.23,.19-.07,.32-.06,.29,.04-.14,.43,.61,1.12,1.09,1.01,1.1-.28,2.2-1.32,2.08-1.96-.12-.58-.08-.62,1.53-1.37,.91-.43,2.38-1.17,3.28-1.66l1.64-.89,.24,.57c.3,.72,.72,.73,1.71,0,1.18-.86,1.38-1.16,1.16-1.79-.18-.52-.12-.59,1.52-1.69,.94-.63,2.09-1.44,2.57-1.79,.72-.53,.92-.6,1.2-.4,.69,.49,.88,.49,1.4-.03l.53-.53h-3.88l-1.65,1.18c-16.96,12.13-40.33,16.94-59.37,12.21-7.78-1.93-19.38-7.31-22.17-10.28-.27-.28-.58-.52-.7-.52-.12,0-.98-.59-1.91-1.3-1.43-1.1-2.81-1.7-2.81-1.23m112.59,.51q.69,.57,.25,.84c-.65,.41-.54,.84,.48,1.86,1.01,1.01,1.77,1.2,1.99,.51,.11-.36,.33-.22,1.94,1.25,.99,.91,2.2,1.97,2.67,2.36,.85,.69,1.01,1.26,.43,1.63-.12,.08,.04,.36,.38,.68,.99,.93,2.54,1.4,2.74,.84,.07-.2,.17-.2,.47-.01,2.07,1.31,4.76,2.91,5.53,3.28,.9,.44,1.17,1.1,.53,1.34-.62,.24,.91,1.29,2.25,1.54,.62,.12,.77,.06,1.13-.4l.42-.53,2.19,.71c1.21,.39,2.79,.82,3.51,.96,1.27,.24,1.82,.76,1.07,1.01-.5,.17,.91,.82,1.95,.91,1.12,.09,1.8-.19,1.8-.76,0-.26,.33-.28,2.2-.2,1.21,.06,2.89,.1,3.74,.1h1.54l.06,.7,.06,.7h1.48c1.63-.03,2.07-.31,1.9-1.22-.08-.43-.02-.48,.57-.49,.57,0,2.47-.26,5.26-.71,1-.16,1.54,.55,.92,1.22-.23,.25-.24,.3-.03,.15,.17-.12,.63-.26,1.03-.32,1.06-.16,2.41-1.06,2.33-1.56-.05-.35,.28-.51,2.54-1.26,1.43-.48,3.08-1.06,3.66-1.29l1.06-.43,.22,.62c.2,.57,.27,.61,.92,.51,1.47-.24,2.8-1.59,2.15-2.19-.2-.19,.37-.56,2.76-1.81,2.76-1.43,3.04-1.54,3.27-1.22,.14,.19,.21,.41,.15,.5-.19,.31,1.19-.22,1.96-.76,.93-.65,1.07-.92,.78-1.56-.19-.42-.14-.52,.55-.97,.42-.28,1.56-1.14,2.54-1.93,1.75-1.41,1.78-1.42,2.11-1.02,.5,.62,.84,.51,1.85-.61,1-1.12,1.06-1.29,.62-1.77-.27-.29-.22-.4,.42-1.07l.72-.74h-.55c-.4,0-.99,.4-2.17,1.46-6.02,5.39-11.22,8.65-18.77,11.76-13.72,5.64-28.93,5.97-40.15,.87-2.69-1.22-7.94-4.26-8.4-4.86-.06-.07-.6-.48-1.2-.91-1.76-1.25-4.52-3.7-6.9-6.09-1.98-1.99-2.27-2.21-2.9-2.21h-.7l.69,.58"/><path id="f" class="i" d="M0,2.16c0,2.39,.1,2.56,1.66,2.89,1.03,.21,2.09,0,2.86-.55,1.39-1.02,2.2-3.8,1.1-3.8-.2,0-.47-.14-.61-.3-.2-.24-.76-.3-2.62-.3H0V2.16M97.33,.55c-2.17,3.44,2.84,7.47,5.72,4.6,.68-.68,1.48-2.81,1.17-3.12-.12-.12-.21-.37-.21-.57,0-.24-.15-.36-.45-.36-.25,0-.78-.23-1.19-.5-1.07-.73-4.58-.76-5.03-.05m196.08,.05c-.26,.27-.58,.5-.72,.5-.91,0-.15,2.27,1.08,3.25,2.46,1.95,5.93,0,5.68-3.2l-.08-1.05h-2.74c-2.67,0-2.76,.01-3.22,.5m-206.47,.04c-.23,.06-.32,.21-.25,.4,.18,.46-.98,1.77-1.99,2.26l-.89,.43,.12,.93c.16,1.21,1.07,2.54,2.03,2.97,3.71,1.65,7.05-2.99,4.23-5.88-.89-.91-2.25-1.37-3.25-1.12m100.89,.83c-.15,.1-.22,.27-.16,.38,.28,.46-1.63,2.45-2.36,2.45-.97,0-.14,2.63,1.17,3.68,.8,.65,3.52,.93,3.88,.41,.08-.11,.38-.36,.67-.54,1.9-1.2,1.68-4.75-.37-5.95-.81-.48-2.41-.72-2.83-.43m124.13,.43c-1.52,.46-2.36,1.68-2.36,3.45,0,4.43,6.75,4.54,6.87,.11,.02-.95-.02-1.06-.42-1.12-.58-.08-2.25-1.75-2.25-2.25,0-.42-.79-.5-1.84-.19m82.31-.07c-.13,.05-.19,.25-.14,.45,.12,.46-1.63,2.43-2.15,2.43-.89,0-.17,2.47,1.01,3.46,2.31,1.94,6.09,.03,5.74-2.9-.27-2.32-2.68-4.16-4.46-3.43m-191.02,1.77c-3.37,.79-3.89,5.31-.78,6.86,2.1,1.05,4.43,.03,5.16-2.26,.38-1.17,.11-2.39-.49-2.23-.45,.12-2.41-1.43-2.51-1.99-.11-.61-.26-.65-1.38-.39m83.8,.83c-.14,.06-.25,.27-.25,.47,0,.47-1.5,1.76-2.29,1.97-1.17,.3-.73,3.1,.62,3.96,.31,.2,.61,.42,.67,.49,.57,.7,2.94,.26,4.14-.77,2.32-2-.15-7.25-2.89-6.12m-178.7,.53c-2.52,.79-3.38,3.84-1.64,5.9,2.45,2.91,7.09,.6,6.37-3.17-.16-.85-.21-.9-.77-.85-.78,.07-2.09-.69-2.6-1.5-.22-.35-.44-.63-.5-.63-.06,0-.44,.11-.85,.24M8.36,5.49c-1.52,.46-2.36,1.68-2.36,3.45,0,4.43,6.75,4.54,6.87,.11,.03-.95-.02-1.06-.42-1.12-.25-.03-.85-.47-1.35-.97-.5-.5-.9-1.07-.9-1.29,0-.42-.79-.5-1.84-.19m171.24,1.87c-.37,.78-1.87,1.94-2.5,1.94-.93,0-.68,2.48,.37,3.56,2.62,2.73,7.23,.44,6.43-3.2-.5-2.27-3.53-3.89-4.29-2.3m-100.8,.1c0,.67-1.73,2.04-2.57,2.04-1.38,0-.24,3.67,1.4,4.52,3.42,1.77,6.93-2.41,4.62-5.49-.97-1.3-3.46-2.07-3.46-1.07m307.6,1.22c0,.48-1.44,1.56-2.45,1.83-.73,.2-.94,.61-.76,1.49,.02,.11,.06,.39,.09,.62,.24,2.16,3.38,3.61,5.27,2.42,2.35-1.48,2.42-4.6,.15-6.17-.99-.68-2.3-.79-2.3-.18m-66.1,.68c-3.71,2.21-1.79,7.72,2.35,6.73,2.28-.55,3.52-3.09,2.47-5.09-.17-.33-.31-.49-.32-.35,0,.64-1.78,.04-2.74-.92-.66-.66-1.11-.76-1.76-.37m-108.43,.22c-1.55,.57-3.07,3.8-2.07,4.42,.11,.07,.2,.29,.2,.5,0,2.2,4.56,2.83,6.19,.86,1.11-1.35,1.08-4.86-.03-4.23-.46,.26-2.42-.64-2.86-1.3-.37-.57-.48-.58-1.43-.24m65.33,.32c0,.5-1.38,1.53-2.45,1.81l-.79,.21,.06,1.14c.24,4.51,6.5,4.93,7.09,.48,.16-1.19-.11-2.04-.89-2.9-1.03-1.11-3.02-1.61-3.02-.74m-160.16,.8c-2.03,1.47-2.12,4.37-.18,5.86,3.06,2.34,7.12-.78,5.64-4.33-.26-.62-.36-.7-.68-.53-.53,.28-2.03-.26-2.74-1-.72-.74-1.02-.74-2.04,0m53.66,.82c-.19,.59-1.67,1.45-2.59,1.49-1.86,.09-1.65,3.52,.3,4.81,3.7,2.44,7.83-2.11,4.92-5.43-.83-.94-2.43-1.48-2.63-.87m-154.24,.11c-4.13,2.04-1.81,8.18,2.53,6.72,1.52-.51,2.47-1.84,2.47-3.45,0-1.2-.34-1.86-.88-1.69-.53,.17-2.49-.8-2.9-1.43-.37-.57-.38-.57-1.22-.15m53.55,.69c0,.67-1.76,2.01-2.7,2.06-1.23,.06-.69,3.1,.74,4.19,3.16,2.41,7.65-1.45,5.5-4.73-.82-1.26-3.54-2.42-3.54-1.52m151.7,1.47c-1.62,.86-2.19,1.88-2.04,3.67,.06,.73,.21,1.36,.33,1.41,.12,.04,.22,.18,.22,.32,0,1.78,4.15,2.14,5.76,.5,1.46-1.5,1.12-5.77-.4-4.96-.7,.37-2.89-.22-3.29-.89-.12-.2-.26-.21-.56-.05m45.76,.04c-.17,.45-1.45,.91-2.66,.95l-1.1,.04-.32,.99c-.34,1.05-.34,1.14,0,2.41,1.1,4.07,7.56,2.44,6.91-1.75-.26-1.65-2.42-3.68-2.82-2.64m109.94-.05c0,.46-1.43,1.34-2.39,1.47-1.05,.14-1.28,.56-1.15,2.07,.4,4.69,7.06,4.29,7.04-.42,0-1.13-.85-2.78-1.43-2.79-.13,0-.27-.1-.3-.22-.13-.38-1.76-.49-1.76-.12m-250.15,.4c-2.37,1.57-2.23,5.05,.25,6.33,3.36,1.73,6.85-1.95,4.88-5.14-.31-.5-.51-.65-.75-.54-.8,.36-2.99-.15-3.51-.81-.19-.24-.32-.21-.87,.15m33.98,.69c-.26,.48-2.04,1.1-2.94,1.01-.66-.06-.77,0-1.11,.63-1.27,2.36,.57,5.2,3.39,5.2,3.66,0,5.01-5.14,1.79-6.81-.9-.47-.9-.47-1.13-.03m168.98,1c-2.16,1.09-2.36,4.16-.38,5.94,.76,.69,.97,.75,2.59,.74,1.43,0,2.75-1.19,3.21-2.9,.34-1.25-.51-3.45-1.13-2.93-.46,.38-3.09-.48-3.09-1.01,0-.29-.42-.24-1.2,.15m-193.05,.81c-2.08,2.08-1.3,5.27,1.49,6.11,2.84,.86,5.4-1.76,4.54-4.64-.33-1.11-1.22-1.98-1.58-1.54-.43,.52-3.11,.19-3.34-.42-.15-.39-.28-.34-1.1,.49m-76.35-.17c-.3,.57-1.69,1.23-2.59,1.25-1.77,.02-1.94,3.46-.23,4.72,3.19,2.36,7.39-.56,5.91-4.11-.66-1.57-2.61-2.75-3.09-1.86m195.99,.02c-.3,.55-2.32,1.1-3.04,.83-1.56-.59-2.06,3.08-.65,4.77,2.82,3.39,8.3-.58,5.97-4.32-.74-1.18-1.96-1.87-2.28-1.28m-230.74,.24c-1.52,1.07-1.92,3.51-.8,4.97,2.23,2.91,6.56,1.56,6.61-2.06,.02-1.28-.86-2.77-1.37-2.34-.39,.32-1.99,.01-2.8-.54-.86-.58-.84-.58-1.63-.03m125.11-.07c-.41,.48-2.32,.76-2.92,.44-1.48-.79-2.56,2.73-1.38,4.48,2.63,3.88,8.45,.66,6.44-3.56-.61-1.29-1.64-1.94-2.14-1.35m80.18,.04c-2.31,1.72-1.38,5.76,1.48,6.4,.83,.19,2.38,.07,2.58-.2,.05-.07,.35-.29,.65-.48,1.6-1.01,1.82-3.91,.41-5.38-.45-.47-.55-.5-.8-.25-.42,.42-2.03,.36-2.96-.11-.43-.22-.79-.4-.79-.39,0,0-.26,.19-.57,.42m135.46,.44c0,.45-1.5,1.35-2.45,1.48-2.37,.32-1.48,4.28,1.16,5.18,3.83,1.31,6.46-3.75,3.27-6.3-.75-.6-1.98-.83-1.98-.37m-120.51,.45c-.26,.42-2.87,.51-3.34,.12-.81-.67-2.05,1.7-1.76,3.36,.64,3.66,5.37,4.29,6.99,.94,.72-1.5,.31-3.37-.95-4.29-.74-.54-.68-.53-.94-.12m-195.41,.96c-.24,.61-3.06,1.02-3.39,.49-.08-.14-.39,.18-.78,.79-1.33,2.11-.3,4.75,2.11,5.38,3.87,1.03,6.32-3.86,3.18-6.35-.86-.68-.97-.71-1.12-.31m-14.17,.57c-1.75,1.52-1.47,4.48,.55,5.7,3.43,2.09,7.28-2.09,4.86-5.27-.4-.52-.62-.67-.77-.51-.36,.36-2.18,.25-3.04-.18-.43-.22-.8-.4-.81-.4s-.37,.3-.79,.66m304.34,.15c-2.61,2.37-.33,6.95,3.07,6.19,1.97-.44,3.08-1.76,3.08-3.66,0-1.42-1.42-3.32-1.9-2.54-.21,.35-1.97,.22-2.8-.2-.43-.22-.79-.4-.79-.39,0,0-.3,.27-.66,.6m15.45,.32c-.25,.39-2.96,.66-3.17,.31-.48-.78-1.67,1.35-1.58,2.83,.13,2.09,2.49,3.97,4.19,3.32,.26-.1,.47-.13,.47-.08,0,.62,2.03-1.48,2.35-2.44,.62-1.84-1.38-5.34-2.26-3.95"/></g></svg>