<?xml version="1.0" encoding="utf-8"?>
<!-- Generator: Adobe Illustrator 26.1.0, SVG Export Plug-In . SVG Version: 6.00 Build 0)  -->
<svg version="1.1" id="Ebene_1" xmlns="http://www.w3.org/2000/svg" xmlns:xlink="http://www.w3.org/1999/xlink" x="0px" y="0px"
	 viewBox="0 0 24 24" style="enable-background:new 0 0 24 24;" xml:space="preserve">
<path d="M17,1c0-0.6-0.4-1-1-1s-1,0.4-1,1v2c0,0.6,0.4,1,1,1c0.6,0,1-0.4,1-1V1z M5,3c0,0.6-0.4,1-1,1S3,3.6,3,3V1c0-0.6,0.4-1,1-1
	s1,0.4,1,1V3z M18,8v10H2V8H18z M20,2h-2v1c0,1.1-0.9,2-2,2s-2-0.9-2-2V2H6v1c0,1.1-0.9,2-2,2S2,4.1,2,3V2H0v18h20V2z M24,5v19H2v-2
	h20V5H24z M-26.7,20.5"/>
<path d="M12.8,14.5c0.3,0.3,0.3,0.8,0,1.1c-0.3,0.3-0.8,0.3-1.1,0l-4.5-4.5c-0.3-0.3-0.3-0.8-0.1-1.1c0.3-0.3,0.8-0.3,1.2,0
	L12.8,14.5z"/>
<path d="M11.6,10c0.3-0.3,0.8-0.3,1.1,0c0.3,0.3,0.3,0.8,0,1.1l-4.5,4.5C8,15.9,7.4,16,7.1,15.7c-0.3-0.3-0.3-0.8,0-1.2L11.6,10z"/>
</svg>
